<svg width="29" height="29" viewBox="0 0 29 29" fill="none" xmlns="http://www.w3.org/2000/svg">
<rect y="4" width="25" height="25" rx="2" fill="#EFF3F9"/>
<rect x="21.5" y="0.5" width="7" height="7" rx="3.5" fill="#F44336" stroke="white"/>
<path opacity="0.5" d="M18.2891 19.0078C17.8438 18.5156 16.9766 17.7891 16.9766 15.375C16.9766 13.5703 15.7109 12.1172 13.9766 11.7422V11.25C13.9766 10.8516 13.6484 10.5 13.25 10.5C12.8281 10.5 12.5 10.8516 12.5 11.25V11.7422C10.7656 12.1172 9.5 13.5703 9.5 15.375C9.5 17.7891 8.63281 18.5156 8.1875 19.0078C8.04688 19.1484 7.97656 19.3359 8 19.5C8 19.8984 8.28125 20.25 8.75 20.25H17.7266C18.1953 20.25 18.4766 19.8984 18.5 19.5C18.5 19.3359 18.4297 19.1484 18.2891 19.0078ZM9.57031 19.125C10.0625 18.4922 10.6016 17.3906 10.625 15.3984C10.625 15.3984 10.625 15.3984 10.625 15.375C10.625 13.9453 11.7969 12.75 13.25 12.75C14.6797 12.75 15.875 13.9453 15.875 15.375C15.875 15.3984 15.8516 15.3984 15.8516 15.3984C15.875 17.3906 16.4141 18.4922 16.9062 19.125H9.57031ZM13.25 22.5C14.0703 22.5 14.7266 21.8438 14.7266 21H11.75C11.75 21.8438 12.4062 22.5 13.25 22.5Z" fill="black"/>
</svg>
