<svg width="14" height="16" viewBox="0 0 14 16" fill="none" xmlns="http://www.w3.org/2000/svg">
<path opacity="0.2" d="M4 4.625C4 4.84375 4.15625 5 4.375 5H5.625C5.8125 5 6 4.84375 6 4.625V3.375C6 3.1875 5.8125 3 5.625 3H4.375C4.15625 3 4 3.1875 4 3.375V4.625ZM8.375 5H9.625C9.8125 5 10 4.84375 10 4.625V3.375C10 3.1875 9.8125 3 9.625 3H8.375C8.15625 3 8 3.1875 8 3.375V4.625C8 4.84375 8.15625 5 8.375 5ZM4.375 8H5.625C5.8125 8 6 7.84375 6 7.625V6.375C6 6.1875 5.8125 6 5.625 6H4.375C4.15625 6 4 6.1875 4 6.375V7.625C4 7.84375 4.15625 8 4.375 8ZM8.375 8H9.625C9.8125 8 10 7.84375 10 7.625V6.375C10 6.1875 9.8125 6 9.625 6H8.375C8.15625 6 8 6.1875 8 6.375V7.625C8 7.84375 8.15625 8 8.375 8ZM6 10.625V9.375C6 9.1875 5.8125 9 5.625 9H4.375C4.15625 9 4 9.1875 4 9.375V10.625C4 10.8438 4.15625 11 4.375 11H5.625C5.8125 11 6 10.8438 6 10.625ZM8.375 11H9.625C9.8125 11 10 10.8438 10 10.625V9.375C10 9.1875 9.8125 9 9.625 9H8.375C8.15625 9 8 9.1875 8 9.375V10.625C8 10.8438 8.15625 11 8.375 11ZM14 14.875C14 14.6875 13.8125 14.5 13.625 14.5H13V0.75C13 0.34375 12.6562 0 12.25 0H1.71875C1.3125 0 0.96875 0.34375 0.96875 0.75V14.5H0.375C0.15625 14.5 0 14.6875 0 14.875V16H14V14.875ZM2.46875 14.4688L2.5 1.5L11.5 1.53125V14.4688H8V12.375C8 12.1875 7.8125 12 7.625 12H6.375C6.15625 12 6 12.1875 6 12.375V14.4688H2.46875Z" fill="black"/>
</svg>
