<svg width="15" height="15" viewBox="0 0 15 15" fill="none" xmlns="http://www.w3.org/2000/svg">
<path opacity="0.3" d="M9.89453 7.75L14.5352 3.15234C14.793 2.89453 14.793 2.42188 14.5352 2.16406L13.4609 1.08984C13.2031 0.832031 12.7305 0.832031 12.4727 1.08984L7.875 5.73047L3.23438 1.08984C2.97656 0.832031 2.50391 0.832031 2.24609 1.08984L1.17188 2.16406C0.914062 2.42188 0.914062 2.89453 1.17188 3.15234L5.8125 7.75L1.17188 12.3906C0.914062 12.6484 0.914062 13.1211 1.17188 13.3789L2.24609 14.4531C2.50391 14.7109 2.97656 14.7109 3.23438 14.4531L7.875 9.8125L12.4727 14.4531C12.7305 14.7109 13.2031 14.7109 13.4609 14.4531L14.5352 13.3789C14.793 13.1211 14.793 12.6484 14.5352 12.3906L9.89453 7.75Z" fill="black"/>
</svg>
