<svg width="18" height="16" viewBox="0 0 18 16" fill="none" xmlns="http://www.w3.org/2000/svg">
<path opacity="0.2" d="M16 5H13V2C13 0.90625 12.0938 0 11 0H2C0.875 0 0 0.90625 0 2V7C0 8.125 0.875 9 2 9H3V10.625C3 10.875 3.15625 11 3.375 11C3.4375 11 3.5 11 3.59375 10.9375L6 9.59375V12C6 13.125 6.875 14 8 14H11L14.375 15.9375C14.4688 16 14.5312 16 14.625 16C14.8125 16 15 15.875 15 15.625V14H16C17.0938 14 18 13.125 18 12V7C18 5.90625 17.0938 5 16 5ZM3 7.5H2C1.71875 7.5 1.5 7.28125 1.5 7V2C1.5 1.75 1.71875 1.5 2 1.5H11C11.25 1.5 11.5 1.75 11.5 2V7C11.5 7.28125 11.25 7.5 11 7.5H6.59375L6.25 7.71875L4.5 8.71875V7.5H3ZM16.5 12C16.5 12.2812 16.25 12.5 16 12.5H13.5V13.7188L11.7188 12.7188L11.375 12.5H8C7.71875 12.5 7.5 12.2812 7.5 12V9H11C12.0938 9 13 8.125 13 7V6.5H16C16.25 6.5 16.5 6.75 16.5 7V12Z" fill="black"/>
</svg>
