<svg width="18" height="18" viewBox="0 0 18 18" fill="none" xmlns="http://www.w3.org/2000/svg">
<path opacity="0.2" d="M10.8125 7.1875C10.4688 6.84375 10.0938 6.59375 9.6875 6.375C9.53125 6.3125 9.375 6.34375 9.25 6.46875L9.125 6.59375C8.84375 6.84375 8.6875 7.1875 8.65625 7.53125C8.625 7.6875 8.71875 7.84375 8.84375 7.9375C9.125 8.0625 9.375 8.21875 9.5625 8.4375C10.5938 9.46875 10.5938 11.125 9.5625 12.1562L7.21875 14.5C6.1875 15.5312 4.53125 15.5312 3.5 14.5C2.46875 13.4688 2.46875 11.8125 3.5 10.7812L4.9375 9.34375C5.03125 9.25 5.0625 9.125 5.03125 9C4.9375 8.625 4.90625 8.21875 4.875 7.8125C4.875 7.5 4.46875 7.34375 4.25 7.5625C3.875 7.9375 3.28125 8.53125 2.28125 9.53125C0.5625 11.25 0.5625 14.0312 2.28125 15.7188C3.96875 17.4375 6.75 17.4375 8.46875 15.7188C11.0312 13.1562 10.9062 13.2812 11.0938 13.0312C12.5 11.3438 12.4062 8.78125 10.8125 7.1875ZM15.6875 2.3125C14 0.59375 11.2188 0.59375 9.5 2.3125C6.9375 4.875 7.0625 4.75 6.875 5C5.46875 6.6875 5.5625 9.25 7.15625 10.8438C7.5 11.1875 7.875 11.4375 8.28125 11.6562C8.4375 11.7188 8.59375 11.6875 8.71875 11.5625L8.84375 11.4375C9.125 11.1875 9.28125 10.8438 9.3125 10.5C9.34375 10.3438 9.25 10.1875 9.125 10.0938C8.84375 9.96875 8.59375 9.8125 8.40625 9.59375C7.375 8.5625 7.375 6.90625 8.40625 5.875L10.75 3.53125C11.7812 2.5 13.4375 2.5 14.4688 3.53125C15.5 4.5625 15.5 6.21875 14.4688 7.25L13.0312 8.6875C12.9375 8.78125 12.9062 8.90625 12.9375 9.03125C13.0312 9.40625 13.0625 9.8125 13.0938 10.2188C13.0938 10.5312 13.5 10.6875 13.7188 10.4688C14.0938 10.0938 14.6875 9.5 15.6875 8.5C17.4062 6.78125 17.4062 4 15.6875 2.3125Z" fill="black"/>
</svg>
