<svg width="35" height="31" viewBox="0 0 35 31" fill="none" xmlns="http://www.w3.org/2000/svg">
<path fill-rule="evenodd" clip-rule="evenodd" d="M15.0402 0L20.8697 0.235741L21.1274 0.236014C21.1477 0.236833 21.1558 0.240107 21.159 0.253204L21.1609 0.269848L21.1612 0.294677L27.9817 3.41825L28.0456 3.45408C28.0926 3.4835 28.1316 3.51564 28.1753 3.55701L28.2732 3.65399L33.2866 9.54753V9.60646C33.2866 9.63962 33.305 9.65412 33.3212 9.67095L33.3358 9.68934L33.3449 9.72433V9.78327L33.3502 9.81098C33.3569 9.82635 33.3687 9.83654 33.3795 9.84776L33.3941 9.86615L33.4032 9.90114V9.96008L34.9771 16.7376L34.9936 16.8235C35.0162 16.9907 34.9772 17.1329 34.9014 17.3001L34.8605 17.3859L31.0131 23.5741L30.9625 23.6502C30.8025 23.8654 30.5679 23.9658 30.2908 23.9837L30.1969 23.9867L24.3091 23.2205L23.4347 25.4601L23.5513 30.116L23.5476 30.2031C23.5209 30.5179 23.3472 30.779 23.0266 30.9411C22.91 31 22.7934 31 22.7351 31C22.5311 31 22.3271 30.9098 22.1621 30.7687L22.0939 30.7053L16.9056 25.0475L10.6391 25.0471C10.6074 25.0452 10.5981 25.0357 10.5514 24.9886L10.5309 24.9848C10.5141 24.9792 10.4931 24.965 10.4931 24.9297C10.4494 24.9297 10.4385 24.8965 10.4112 24.8799L10.3765 24.8707L10.26 24.7524V24.6939L6.87884 19.2129L1.1659 16.9144L1.09435 16.8814C0.860563 16.7596 0.677378 16.5253 0.646004 16.2808L0.641247 16.2072L0 9.42919L0.000466362 8.95205C0.00233181 8.93696 0.011659 8.89924 0.0582952 8.89924C0.0582952 8.89924 0.0582952 8.8403 0.11659 8.8403C0.11659 8.80715 0.135035 8.79265 0.151175 8.77582L0.165777 8.75743L0.174886 8.72243L6.47077 2.23954L6.50528 2.21031L6.55351 2.17884C6.56712 2.16939 6.57763 2.15971 6.58312 2.14592L6.58736 2.12167H6.64565L6.68938 2.11246L6.77682 2.07195L6.82054 2.06274L14.807 0H15.0402ZM16.8185 20.6667L13.3475 23.275H17.2892L17.3773 23.2804C17.5531 23.3019 17.7248 23.386 17.8675 23.5076L17.9363 23.5714L20.4661 26.3575L18.5835 21.3187L18.4218 21.3002C17.8889 21.2272 17.366 21.0365 16.9523 20.7614L16.8185 20.6667ZM31.2924 19.7029L21.5089 19.1691C21.3451 19.8919 20.8742 20.4584 20.2882 20.8685L20.1695 20.9484L21.6836 25.1594L21.6841 25.1238C21.6855 25.0883 21.6911 25.0527 21.7134 25.0171L21.7418 24.9815L22.9336 21.8871C23.0669 21.5931 23.4013 21.3971 23.7095 21.4149L29.7783 22.1939L31.2924 19.7029L21.5089 19.1691L31.2924 19.7029ZM15.6624 17.5343L11.5493 15.2754C11.0626 15.7192 10.4246 16.0077 9.6823 16.0442L9.52165 16.0482H9.23199L8.30508 18.426L11.0858 23.0628L15.7203 19.4366L15.7083 19.1931C15.6786 18.8754 15.6045 18.5806 15.6045 18.2477C15.6045 18.0693 15.6371 17.891 15.6534 17.7127L15.6624 17.5343L11.5493 15.2754L15.6624 17.5343ZM32.0519 11.3816L21.6525 17.4705V17.5296L32.4024 18.1208L33.2203 16.7611L32.0519 11.3816ZM1.77966 10.6329L2.24954 15.4728L6.94831 17.2222L7.71186 15.2396L7.61241 15.1702C6.99235 14.7147 6.52939 13.9359 6.48238 13.0052L6.47844 12.8487V12.6738L1.77966 10.6329ZM18.8703 10.4831L12.5753 12.9259L12.5687 13.1047C12.556 13.2834 12.5263 13.4622 12.4925 13.6409L12.4576 13.8196L16.517 16.0242L16.626 15.9193C17.1114 15.4757 17.7647 15.1723 18.4711 15.0867L18.635 15.0709L19.5763 11.2576L19.4687 11.1853C19.2591 11.0303 19.0826 10.8166 18.9392 10.5946L18.8703 10.4831ZM30.1059 10.648L24.3779 9.58454C24.0381 10.9009 22.8756 11.94 21.4748 12.0037L21.3385 12.0068H21.0462L20.1695 15.6106L20.2695 15.6428C20.4357 15.7074 20.5976 15.8237 20.7339 15.9485L20.8124 16.0242L30.1059 10.648L24.3779 9.58454L30.1059 10.648ZM20.2635 2.99517L12.3093 11.2319L18.2749 8.93737V8.8197L18.2778 8.68252C18.3355 7.31804 19.2494 6.17979 20.4893 5.8495L20.6144 5.81919L20.2635 2.99517ZM6.71005 4.49275L2.22458 9.02295L7.00515 11.0821L7.08813 10.9646C7.29158 10.6912 7.56247 10.4257 7.87303 10.2234L8.00847 10.1408L6.71005 4.49275ZM15.2786 1.49758L8.15678 3.36854L9.55779 9.62454L9.73284 9.63088C10.1409 9.66007 10.545 9.78752 10.9178 9.95819L11.0756 10.0338L19.1314 1.67299L15.2786 1.49758ZM21.9492 2.39613L22.356 5.80849L22.4941 5.86407C23.3122 6.2122 23.9782 6.83976 24.2822 7.66177L24.3321 7.80883L30.5508 8.98551L27.1218 4.92598L21.9492 2.39613Z" fill="#F44336"/>
</svg>
